# xmcd
#
# Track frame offsets: 
#        150
#        18098
#        33576
#        61710
#        78513
#        103666
#        121747
#        133160
#        151368
#        166753
#        188324
#        216226
#        235639
#
# Disc length: 3355 seconds
#
# Revision: 3
# Processed by: cddbd v1.5.1PL2 Copyright (c) Steve Scherf et al.
# Submitted via: ExactAudioCopy v0.90b4
#
DISCID=970d190d
DTITLE=Chip Taylor and Carrie Rodriguez - Red Dog Tracks
DYEAR=2005
DGENRE=
TTITLE0=Must Be The Whiskey
TTITLE1=Keep Your Hat On Jenny
TTITLE2=Big Moon Shinin'
TTITLE3=Oh Set A Light
TTITLE4=Once Again, One Day...Will You Be Mine
TTITLE5=Private Thoughts
TTITLE6=My Bucket's Got A Hole In It
TTITLE7=The Wonder Of You
TTITLE8=I Can't Help It (If I'm Still In Love With You)
TTITLE9=Red Dog Tracks
TTITLE10=Elzick's Farewell
TTITLE11=Son Of Man
TTITLE12=Jenny Reprise
EXTD=
EXTT0=
EXTT1=
EXTT2=
EXTT3=
EXTT4=
EXTT5=
EXTT6=
EXTT7=
EXTT8=
EXTT9=
EXTT10=
EXTT11=
EXTT12=
PLAYORDER=
